ISO-10303-21;
HEADER;
FILE_DESCRIPTION (( 'STEP AP214' ),
    '1' );
FILE_NAME ('demo_01_bracket.step',
    '2026-08-28T15:39:02',
    ( '' ),
    ( '' ),
    'SwSTEP 2.0',
    'SolidWorks 2026',
    '' );
FILE_SCHEMA (( 'AUTOMOTIVE_DESIGN' ));
ENDSEC;

DATA;
#1 = ORIENTED_EDGE ( 'NONE', *, *, #271, .T. ) ;
#2 = LINE ( 'NONE', #7, #29 ) ;
#3 = LINE ( 'NONE', #250, #506 ) ;
#4 = ORIENTED_EDGE ( 'NONE', *, *, #216, .F. ) ;
#5 = AXIS2_PLACEMENT_3D ( 'NONE', #19, #166, #358 ) ;
#6 = ORIENTED_EDGE ( 'NONE', *, *, #609, .T. ) ;
#7 = CARTESIAN_POINT ( 'NONE',  ( 0.9173228346456693272, 0.7874015748031496509, 0.000000000000000000 ) ) ;
#8 = CARTESIAN_POINT ( 'NONE',  ( 0.1968503937007874127, 0.1968503937007874127, 0.3149606299212598381 ) ) ;
#9 = FACE_BOUND ( 'NONE', #293, .T. ) ;
#10 = EDGE_CURVE ( 'NONE', #435, #181, #279, .T. ) ;
#11 = CARTESIAN_POINT ( 'NONE',  ( 0.6574803149606300856, 1.574803149606299302, 0.000000000000000000 ) ) ;
#12 = DIRECTION ( 'NONE',  ( 0.000000000000000000, 1.000000000000000000, 0.000000000000000000 ) ) ;
#13 = ORIENTED_EDGE ( 'NONE', *, *, #76, .F. ) ;
#14 = VECTOR ( 'NONE', #273, 39.37007874015748143 ) ;
#15 = LENGTH_MEASURE_WITH_UNIT ( LENGTH_MEASURE( 0.02539999999999999897 ), #122 );
#16 = DIRECTION ( 'NONE',  ( -1.000000000000000000, 0.000000000000000000, 0.000000000000000000 ) ) ;
#17 = FACE_BOUND ( 'NONE', #384, .T. ) ;
#18 = DIRECTION ( 'NONE',  ( 0.000000000000000000, 0.000000000000000000, -1.000000000000000000 ) ) ;
#19 = CARTESIAN_POINT ( 'NONE',  ( 3.149606299212598604, 1.574803149606299302, 0.3149606299212598381 ) ) ;
#20 = CYLINDRICAL_SURFACE ( 'NONE', #319, 0.1968503937007875793 ) ;
#21 = VERTEX_POINT ( 'NONE', #445 ) ;
#22 = AXIS2_PLACEMENT_3D ( 'NONE', #68, #303, #466 ) ;
#23 = DIRECTION ( 'NONE',  ( -0.000000000000000000, -0.000000000000000000, 1.000000000000000000 ) ) ;
#24 = CARTESIAN_POINT ( 'NONE',  ( 3.019685039370079149, 0.7874015748031496509, 0.3149606299212598381 ) ) ;
#25 = CIRCLE ( 'NONE', #163, 0.1968503937007875793 ) ;
#26 = FACE_OUTER_BOUND ( 'NONE', #233, .T. ) ;
#27 = DIRECTION ( 'NONE',  ( -1.000000000000000000, 0.000000000000000000, 0.000000000000000000 ) ) ;
#28 = VECTOR ( 'NONE', #606, 39.37007874015748143 ) ;
#29 = VECTOR ( 'NONE', #581, 39.37007874015748143 ) ;
#30 = ADVANCED_FACE ( 'NONE', ( #9, #61, #251, #544, #204 ), #300, .F. ) ;
#31 = CYLINDRICAL_SURFACE ( 'NONE', #141, 0.1299212598425197318 ) ;
#32 = ORIENTED_EDGE ( 'NONE', *, *, #551, .F. ) ;
#33 = DIRECTION ( 'NONE',  ( 0.000000000000000000, 0.000000000000000000, 1.000000000000000000 ) ) ;
#34 =( CONVERSION_BASED_UNIT ( 'INCH', #15 ) LENGTH_UNIT ( ) NAMED_UNIT ( #474 ) );
#35 = CIRCLE ( 'NONE', #381, 0.1968503937007875793 ) ;
#36 = ORIENTED_EDGE ( 'NONE', *, *, #195, .T. ) ;
#37 = SHAPE_DEFINITION_REPRESENTATION ( #258, #507 ) ;
#38 = ORIENTED_EDGE ( 'NONE', *, *, #45, .F. ) ;
#39 = CARTESIAN_POINT ( 'NONE',  ( 3.149606299212598604, 1.574803149606299302, 0.3149606299212598381 ) ) ;
#40 = ADVANCED_FACE ( 'NONE', ( #256 ), #200, .F. ) ;
#41 = ORIENTED_EDGE ( 'NONE', *, *, #120, .T. ) ;
#42 = CARTESIAN_POINT ( 'NONE',  ( 0.000000000000000000, 2.165354330708661568, 0.3149606299212598381 ) ) ;
#43 = VERTEX_POINT ( 'NONE', #67 ) ;
#44 = UNCERTAINTY_MEASURE_WITH_UNIT (LENGTH_MEASURE( 1.000000000000000082E-05 ), #346, 'distance_accuracy_value', 'NONE');
#45 = EDGE_CURVE ( 'NONE', #124, #608, #126, .T. ) ;
#46 = CARTESIAN_POINT ( 'NONE',  ( 0.000000000000000000, 0.000000000000000000, 0.3149606299212598381 ) ) ;
#47 = EDGE_LOOP ( 'NONE', ( #90, #245 ) ) ;
#48 = PRODUCT_DEFINITION ( 'UNKNOWN', '', #455, #517 ) ;
#49 = CARTESIAN_POINT ( 'NONE',  ( 0.1968503937007874127, 0.000000000000000000, 0.3149606299212598381 ) ) ;
#50 = EDGE_LOOP ( 'NONE', ( #554, #387 ) ) ;
#51 = DIRECTION ( 'NONE',  ( 0.000000000000000000, 0.000000000000000000, -1.000000000000000000 ) ) ;
#52 = DIRECTION ( 'NONE',  ( -0.000000000000000000, -0.000000000000000000, 1.000000000000000000 ) ) ;
#53 = ORIENTED_EDGE ( 'NONE', *, *, #537, .T. ) ;
#54 = APPLICATION_CONTEXT ( 'automotive_design' ) ;
#55 = VECTOR ( 'NONE', #578, 39.37007874015748143 ) ;
#56 = DIRECTION ( 'NONE',  ( 0.000000000000000000, 0.000000000000000000, 1.000000000000000000 ) ) ;
#57 = AXIS2_PLACEMENT_3D ( 'NONE', #208, #452, #143 ) ;
#58 = DIRECTION ( 'NONE',  ( 0.000000000000000000, 0.000000000000000000, -1.000000000000000000 ) ) ;
#59 = VERTEX_POINT ( 'NONE', #595 ) ;
#60 = DIRECTION ( 'NONE',  ( 0.000000000000000000, 0.000000000000000000, 1.000000000000000000 ) ) ;
#61 = FACE_BOUND ( 'NONE', #267, .T. ) ;
#62 = DIRECTION ( 'NONE',  ( -1.000000000000000000, 0.000000000000000000, 0.000000000000000000 ) ) ;
#63 = DIRECTION ( 'NONE',  ( 1.000000000000000000, 0.000000000000000000, 0.000000000000000000 ) ) ;
#64 = AXIS2_PLACEMENT_3D ( 'NONE', #514, #133, #565 ) ;
#65 = ADVANCED_FACE ( 'NONE', ( #403, #453, #157, #349, #17 ), #306, .T. ) ;
#66 = CARTESIAN_POINT ( 'NONE',  ( 0.000000000000000000, 2.362204724409448620, 0.3149606299212598381 ) ) ;
#67 = CARTESIAN_POINT ( 'NONE',  ( 3.740157480314960647, 0.000000000000000000, 0.3149606299212598381 ) ) ;
#68 = CARTESIAN_POINT ( 'NONE',  ( 0.7874015748031497619, 1.574803149606299302, 0.000000000000000000 ) ) ;
#69 = VERTEX_POINT ( 'NONE', #465 ) ;
#70 = LINE ( 'NONE', #457, #253 ) ;
#71 = VERTEX_POINT ( 'NONE', #254 ) ;
#72 = CARTESIAN_POINT ( 'NONE',  ( 3.937007874015748143, 0.1968503937007874127, 0.3149606299212598381 ) ) ;
#73 = EDGE_LOOP ( 'NONE', ( #328, #626, #295, #361, #159, #36, #32, #374 ) ) ;
#74 = DIRECTION ( 'NONE',  ( 0.000000000000000000, 0.000000000000000000, -1.000000000000000000 ) ) ;
#75 = VECTOR ( 'NONE', #360, 39.37007874015748143 ) ;
#76 = EDGE_CURVE ( 'NONE', #93, #96, #424, .T. ) ;
#77 = LINE ( 'NONE', #425, #408 ) ;
#78 = ORIENTED_EDGE ( 'NONE', *, *, #570, .F. ) ;
#79 = CIRCLE ( 'NONE', #571, 0.1299212598425197318 ) ;
#80 = DIRECTION ( 'NONE',  ( -0.000000000000000000, -0.000000000000000000, 1.000000000000000000 ) ) ;
#81 = AXIS2_PLACEMENT_3D ( 'NONE', #393, #194, #202 ) ;
#82 = CIRCLE ( 'NONE', #115, 0.1299212598425195930 ) ;
#83 = ORIENTED_EDGE ( 'NONE', *, *, #427, .F. ) ;
#84 = MANIFOLD_SOLID_BREP ( 'Fillet1', #508 ) ;
#85 = CARTESIAN_POINT ( 'NONE',  ( 0.000000000000000000, 0.000000000000000000, 0.3149606299212598381 ) ) ;
#86 = EDGE_LOOP ( 'NONE', ( #421, #185, #144, #266 ) ) ;
#87 = EDGE_LOOP ( 'NONE', ( #138, #399 ) ) ;
#88 = ORIENTED_EDGE ( 'NONE', *, *, #298, .F. ) ;
#89 = EDGE_CURVE ( 'NONE', #71, #181, #451, .T. ) ;
#90 = ORIENTED_EDGE ( 'NONE', *, *, #495, .F. ) ;
#91 = LINE ( 'NONE', #247, #238 ) ;
#92 = DIRECTION ( 'NONE',  ( -0.000000000000000000, -0.000000000000000000, 1.000000000000000000 ) ) ;
#93 = VERTEX_POINT ( 'NONE', #218 ) ;
#94 = CARTESIAN_POINT ( 'NONE',  ( 3.740157480314960647, 0.1968503937007874127, 0.3149606299212598381 ) ) ;
#95 = CARTESIAN_POINT ( 'NONE',  ( 3.937007874015748143, 0.1968503937007874127, 0.000000000000000000 ) ) ;
#96 = VERTEX_POINT ( 'NONE', #169 ) ;
#97 = EDGE_CURVE ( 'NONE', #165, #339, #359, .T. ) ;
#98 = CARTESIAN_POINT ( 'NONE',  ( 0.6574803149606299746, 0.7874015748031496509, 0.3149606299212598381 ) ) ;
#99 = CIRCLE ( 'NONE', #504, 0.1968503937007875793 ) ;
#100 = EDGE_LOOP ( 'NONE', ( #140, #406, #314, #628 ) ) ;
#101 = VECTOR ( 'NONE', #12, 39.37007874015748143 ) ;
#102 = DIRECTION ( 'NONE',  ( -0.000000000000000000, -0.000000000000000000, 1.000000000000000000 ) ) ;
#103 = CARTESIAN_POINT ( 'NONE',  ( 0.6574803149606300856, 1.574803149606299302, 0.3149606299212598381 ) ) ;
#104 = ORIENTED_EDGE ( 'NONE', *, *, #464, .T. ) ;
#105 = AXIS2_PLACEMENT_3D ( 'NONE', #94, #342, #524 ) ;
#106 = PLANE ( 'NONE',  #488 ) ;
#107 = CARTESIAN_POINT ( 'NONE',  ( 0.000000000000000000, 0.000000000000000000, 0.3149606299212598381 ) ) ;
#108 =( LENGTH_UNIT ( ) NAMED_UNIT ( * ) SI_UNIT ( $, .METRE. ) );
#109 = DIRECTION ( 'NONE',  ( -1.000000000000000000, -0.000000000000000000, -0.000000000000000000 ) ) ;
#110 = ORIENTED_EDGE ( 'NONE', *, *, #226, .F. ) ;
#111 = CARTESIAN_POINT ( 'NONE',  ( 0.6574803149606299746, 0.7874015748031496509, 0.000000000000000000 ) ) ;
#112 = EDGE_LOOP ( 'NONE', ( #527, #577 ) ) ;
#113 = AXIS2_PLACEMENT_3D ( 'NONE', #530, #58, #156 ) ;
#114 = SURFACE_STYLE_FILL_AREA ( #598 ) ;
#115 = AXIS2_PLACEMENT_3D ( 'NONE', #386, #56, #149 ) ;
#116 = DIRECTION ( 'NONE',  ( 0.000000000000000000, 0.000000000000000000, 1.000000000000000000 ) ) ;
#117 = DIRECTION ( 'NONE',  ( 0.000000000000000000, 0.000000000000000000, -1.000000000000000000 ) ) ;
#118 = DIRECTION ( 'NONE',  ( -0.000000000000000000, -0.000000000000000000, 1.000000000000000000 ) ) ;
#119 = CYLINDRICAL_SURFACE ( 'NONE', #269, 0.1968503937007874127 ) ;
#120 = EDGE_CURVE ( 'NONE', #471, #43, #312, .T. ) ;
#121 = CARTESIAN_POINT ( 'NONE',  ( 0.9173228346456695492, 1.574803149606299302, 0.000000000000000000 ) ) ;
#122 =( LENGTH_UNIT ( ) NAMED_UNIT ( * ) SI_UNIT ( $, .METRE. ) );
#123 = AXIS2_PLACEMENT_3D ( 'NONE', #244, #60, #294 ) ;
#124 = VERTEX_POINT ( 'NONE', #563 ) ;
#125 = CIRCLE ( 'NONE', #596, 0.1299212598425195930 ) ;
#126 = CIRCLE ( 'NONE', #458, 0.1299212598425197318 ) ;
#127 = CARTESIAN_POINT ( 'NONE',  ( 3.740157480314960647, 2.165354330708661568, 0.000000000000000000 ) ) ;
#128 = CIRCLE ( 'NONE', #81, 0.1299212598425197318 ) ;
#129 = DIRECTION ( 'NONE',  ( 1.000000000000000000, 0.000000000000000000, 0.000000000000000000 ) ) ;
#130 = CARTESIAN_POINT ( 'NONE',  ( 0.1968503937007874127, 0.000000000000000000, 0.000000000000000000 ) ) ;
#131 = ORIENTED_EDGE ( 'NONE', *, *, #478, .F. ) ;
#132 = EDGE_CURVE ( 'NONE', #332, #178, #77, .T. ) ;
#133 = DIRECTION ( 'NONE',  ( -0.000000000000000000, -0.000000000000000000, 1.000000000000000000 ) ) ;
#134 = EDGE_CURVE ( 'NONE', #566, #335, #220, .T. ) ;
#135 = DIRECTION ( 'NONE',  ( 0.000000000000000000, 1.000000000000000000, 0.000000000000000000 ) ) ;
#136 = AXIS2_PLACEMENT_3D ( 'NONE', #585, #333, #329 ) ;
#137 = EDGE_CURVE ( 'NONE', #71, #494, #125, .T. ) ;
#138 = ORIENTED_EDGE ( 'NONE', *, *, #45, .T. ) ;
#139 = ADVANCED_FACE ( 'NONE', ( #284 ), #320, .F. ) ;
#140 = ORIENTED_EDGE ( 'NONE', *, *, #252, .F. ) ;
#141 = AXIS2_PLACEMENT_3D ( 'NONE', #510, #572, #223 ) ;
#142 = DIRECTION ( 'NONE',  ( -1.000000000000000000, -0.000000000000000000, -0.000000000000000000 ) ) ;
#143 = DIRECTION ( 'NONE',  ( 1.000000000000000000, 0.000000000000000000, 0.000000000000000000 ) ) ;
#144 = ORIENTED_EDGE ( 'NONE', *, *, #341, .T. ) ;
#145 = AXIS2_PLACEMENT_3D ( 'NONE', #265, #553, #398 ) ;
#146 = FACE_OUTER_BOUND ( 'NONE', #227, .T. ) ;
#147 = CARTESIAN_POINT ( 'NONE',  ( 0.7874015748031497619, 1.574803149606299302, 0.3149606299212598381 ) ) ;
#148 = ORIENTED_EDGE ( 'NONE', *, *, #89, .T. ) ;
#149 = DIRECTION ( 'NONE',  ( 1.000000000000000000, 0.000000000000000000, 0.000000000000000000 ) ) ;
#150 = DIRECTION ( 'NONE',  ( 0.000000000000000000, 0.000000000000000000, -1.000000000000000000 ) ) ;
#151 = ORIENTED_EDGE ( 'NONE', *, *, #478, .T. ) ;
#152 = DIRECTION ( 'NONE',  ( 1.000000000000000000, 0.000000000000000000, 0.000000000000000000 ) ) ;
#153 = CARTESIAN_POINT ( 'NONE',  ( 0.7874015748031497619, 1.574803149606299302, 0.000000000000000000 ) ) ;
#154 = DIRECTION ( 'NONE',  ( 1.000000000000000000, 0.000000000000000000, 0.000000000000000000 ) ) ;
#155 = VECTOR ( 'NONE', #118, 39.37007874015748143 ) ;
#156 = DIRECTION ( 'NONE',  ( -1.000000000000000000, 0.000000000000000000, 0.000000000000000000 ) ) ;
#157 = FACE_OUTER_BOUND ( 'NONE', #73, .T. ) ;
#158 = DIRECTION ( 'NONE',  ( 0.000000000000000000, 0.000000000000000000, 1.000000000000000000 ) ) ;
#159 = ORIENTED_EDGE ( 'NONE', *, *, #132, .F. ) ;
#160 = UNCERTAINTY_MEASURE_WITH_UNIT (LENGTH_MEASURE( 1.000000000000000082E-05 ), #34, 'distance_accuracy_value', 'NONE');
#161 = DIRECTION ( 'NONE',  ( 1.000000000000000000, 0.000000000000000000, 0.000000000000000000 ) ) ;
#162 = VERTEX_POINT ( 'NONE', #72 ) ;
#163 = AXIS2_PLACEMENT_3D ( 'NONE', #127, #74, #257 ) ;
#164 = CYLINDRICAL_SURFACE ( 'NONE', #145, 0.1299212598425197318 ) ;
#165 = VERTEX_POINT ( 'NONE', #121 ) ;
#166 = DIRECTION ( 'NONE',  ( 0.000000000000000000, 0.000000000000000000, 1.000000000000000000 ) ) ;
#167 = ADVANCED_FACE ( 'NONE', ( #26 ), #180, .F. ) ;
#168 = PRESENTATION_LAYER_ASSIGNMENT (  '', '', ( #433 ) ) ;
#169 = CARTESIAN_POINT ( 'NONE',  ( 3.019685039370079149, 0.7874015748031496509, 0.000000000000000000 ) ) ;
#170 = DIRECTION ( 'NONE',  ( 1.000000000000000000, 0.000000000000000000, 0.000000000000000000 ) ) ;
#171 = EDGE_CURVE ( 'NONE', #494, #435, #232, .T. ) ;
#172 = DIRECTION ( 'NONE',  ( 0.000000000000000000, 0.000000000000000000, 1.000000000000000000 ) ) ;
#173 = DIRECTION ( 'NONE',  ( 0.000000000000000000, 0.000000000000000000, -1.000000000000000000 ) ) ;
#174 = AXIS2_PLACEMENT_3D ( 'NONE', #225, #268, #475 ) ;
#175 = DIRECTION ( 'NONE',  ( -1.000000000000000000, 0.000000000000000000, 0.000000000000000000 ) ) ;
#176 = VERTEX_POINT ( 'NONE', #470 ) ;
#177 = ADVANCED_FACE ( 'NONE', ( #281 ), #555, .F. ) ;
#178 = VERTEX_POINT ( 'NONE', #472 ) ;
#179 = CARTESIAN_POINT ( 'NONE',  ( 0.000000000000000000, 0.000000000000000000, 0.000000000000000000 ) ) ;
#180 = PLANE ( 'NONE',  #480 ) ;
#181 = VERTEX_POINT ( 'NONE', #509 ) ;
#182 = ADVANCED_FACE ( 'NONE', ( #183 ), #614, .F. ) ;
#183 = FACE_OUTER_BOUND ( 'NONE', #391, .T. ) ;
#184 = ORIENTED_EDGE ( 'NONE', *, *, #377, .F. ) ;
#185 = ORIENTED_EDGE ( 'NONE', *, *, #583, .T. ) ;
#186 = EDGE_CURVE ( 'NONE', #181, #435, #392, .T. ) ;
#187 = ORIENTED_EDGE ( 'NONE', *, *, #511, .T. ) ;
#188 = VECTOR ( 'NONE', #109, 39.37007874015748143 ) ;
#189 = CARTESIAN_POINT ( 'NONE',  ( 0.7874015748031497619, 1.574803149606299302, 0.3149606299212598381 ) ) ;
#190 = ORIENTED_EDGE ( 'NONE', *, *, #619, .F. ) ;
#191 = CARTESIAN_POINT ( 'NONE',  ( 3.937007874015748143, 2.165354330708661568, 0.3149606299212598381 ) ) ;
#192 = ADVANCED_FACE ( 'NONE', ( #373 ), #31, .F. ) ;
#193 = DIRECTION ( 'NONE',  ( -0.000000000000000000, -0.000000000000000000, 1.000000000000000000 ) ) ;
#194 = DIRECTION ( 'NONE',  ( 0.000000000000000000, 0.000000000000000000, 1.000000000000000000 ) ) ;
#195 = EDGE_CURVE ( 'NONE', #332, #59, #99, .T. ) ;
#196 = EDGE_LOOP ( 'NONE', ( #442, #539, #209, #616 ) ) ;
#197 = AXIS2_PLACEMENT_3D ( 'NONE', #501, #158, #170 ) ;
#198 = CARTESIAN_POINT ( 'NONE',  ( 3.019685039370079149, 1.574803149606299302, 0.3149606299212598381 ) ) ;
#199 = DIRECTION ( 'NONE',  ( -0.000000000000000000, -0.000000000000000000, 1.000000000000000000 ) ) ;
#200 = CYLINDRICAL_SURFACE ( 'NONE', #317, 0.1299212598425197318 ) ;
#201 = LENGTH_MEASURE_WITH_UNIT ( LENGTH_MEASURE( 0.02539999999999999897 ), #108 );
#202 = DIRECTION ( 'NONE',  ( 1.000000000000000000, 0.000000000000000000, 0.000000000000000000 ) ) ;
#203 = DIRECTION ( 'NONE',  ( 0.000000000000000000, 0.000000000000000000, 1.000000000000000000 ) ) ;
#204 = FACE_BOUND ( 'NONE', #50, .T. ) ;
#205 = CARTESIAN_POINT ( 'NONE',  ( 3.149606299212598604, 0.7874015748031496509, 0.000000000000000000 ) ) ;
#206 = CARTESIAN_POINT ( 'NONE',  ( 0.000000000000000000, 2.165354330708661568, 0.000000000000000000 ) ) ;
#207 = AXIS2_PLACEMENT_3D ( 'NONE', #369, #135, #624 ) ;
#208 = CARTESIAN_POINT ( 'NONE',  ( 0.7874015748031497619, 1.574803149606299302, 0.000000000000000000 ) ) ;
#209 = ORIENTED_EDGE ( 'NONE', *, *, #416, .F. ) ;
#210 = VECTOR ( 'NONE', #142, 39.37007874015748143 ) ;
#211 = DIRECTION ( 'NONE',  ( 0.000000000000000000, 0.000000000000000000, 1.000000000000000000 ) ) ;
#212 = ORIENTED_EDGE ( 'NONE', *, *, #186, .T. ) ;
#213 = LINE ( 'NONE', #66, #188 ) ;
#214 = ORIENTED_EDGE ( 'NONE', *, *, #242, .F. ) ;
#215 = ORIENTED_EDGE ( 'NONE', *, *, #625, .T. ) ;
#216 = EDGE_CURVE ( 'NONE', #93, #69, #367, .T. ) ;
#217 = AXIS2_PLACEMENT_3D ( 'NONE', #8, #52, #437 ) ;
#218 = CARTESIAN_POINT ( 'NONE',  ( 3.279527559055118058, 0.7874015748031496509, 0.000000000000000000 ) ) ;
#219 = ORIENTED_EDGE ( 'NONE', *, *, #364, .T. ) ;
#220 = CIRCLE ( 'NONE', #573, 0.1968503937007874127 ) ;
#221 = CARTESIAN_POINT ( 'NONE',  ( 3.149606299212598604, 1.574803149606299302, 0.000000000000000000 ) ) ;
#222 = LINE ( 'NONE', #409, #545 ) ;
#223 = DIRECTION ( 'NONE',  ( 1.000000000000000000, 0.000000000000000000, 0.000000000000000000 ) ) ;
#224 = ORIENTED_EDGE ( 'NONE', *, *, #583, .F. ) ;
#225 = CARTESIAN_POINT ( 'NONE',  ( 0.7874015748031496509, 0.7874015748031496509, 0.000000000000000000 ) ) ;
#226 = EDGE_CURVE ( 'NONE', #176, #178, #25, .T. ) ;
#227 = EDGE_LOOP ( 'NONE', ( #234, #13, #607, #564 ) ) ;
#228 = VERTEX_POINT ( 'NONE', #130 ) ;
#229 = APPLICATION_PROTOCOL_DEFINITION ( 'draft international standard', 'automotive_design', 1998, #414 ) ;
#230 = DIRECTION ( 'NONE',  ( 1.000000000000000000, 0.000000000000000000, 0.000000000000000000 ) ) ;
#231 = EDGE_CURVE ( 'NONE', #162, #431, #236, .T. ) ;
#232 = LINE ( 'NONE', #518, #296 ) ;
#233 = EDGE_LOOP ( 'NONE', ( #270, #522, #550, #219 ) ) ;
#234 = ORIENTED_EDGE ( 'NONE', *, *, #271, .F. ) ;
#235 = DIRECTION ( 'NONE',  ( 0.000000000000000000, 0.000000000000000000, -1.000000000000000000 ) ) ;
#236 = LINE ( 'NONE', #534, #101 ) ;
#237 = EDGE_LOOP ( 'NONE', ( #214, #321, #53, #83 ) ) ;
#238 = VECTOR ( 'NONE', #382, 39.37007874015748143 ) ;
#239 = CIRCLE ( 'NONE', #22, 0.1299212598425197318 ) ;
#240 = DIRECTION ( 'NONE',  ( 1.000000000000000000, 0.000000000000000000, 0.000000000000000000 ) ) ;
#241 = ORIENTED_EDGE ( 'NONE', *, *, #537, .F. ) ;
#242 = EDGE_CURVE ( 'NONE', #608, #124, #441, .T. ) ;
#243 = DIRECTION ( 'NONE',  ( 0.000000000000000000, 0.000000000000000000, -1.000000000000000000 ) ) ;
#244 = CARTESIAN_POINT ( 'NONE',  ( 0.7874015748031496509, 0.7874015748031496509, 0.000000000000000000 ) ) ;
#245 = ORIENTED_EDGE ( 'NONE', *, *, #341, .F. ) ;
#246 =( GEOMETRIC_REPRESENTATION_CONTEXT ( 3 ) GLOBAL_UNCERTAINTY_ASSIGNED_CONTEXT ( ( #44 ) ) GLOBAL_UNIT_ASSIGNED_CONTEXT ( ( #346, #467, #503 ) ) REPRESENTATION_CONTEXT ( 'NONE', 'WORKASPACE' ) );
#247 = CARTESIAN_POINT ( 'NONE',  ( 0.6574803149606299746, 0.7874015748031496509, 0.000000000000000000 ) ) ;
#248 = EDGE_LOOP ( 'NONE', ( #282, #531, #311, #187 ) ) ;
#249 = CARTESIAN_POINT ( 'NONE',  ( 0.1968503937007874127, 2.165354330708661568, 0.000000000000000000 ) ) ;
#250 = CARTESIAN_POINT ( 'NONE',  ( 3.019685039370079149, 0.7874015748031496509, 0.000000000000000000 ) ) ;
#251 = FACE_OUTER_BOUND ( 'NONE', #513, .T. ) ;
#252 = EDGE_CURVE ( 'NONE', #519, #471, #375, .T. ) ;
#253 = VECTOR ( 'NONE', #18, 39.37007874015748143 ) ;
#254 = CARTESIAN_POINT ( 'NONE',  ( 3.279527559055118058, 1.574803149606299302, 0.000000000000000000 ) ) ;
#255 = CARTESIAN_POINT ( 'NONE',  ( 0.9173228346456693272, 0.7874015748031496509, 0.3149606299212598381 ) ) ;
#256 = FACE_OUTER_BOUND ( 'NONE', #86, .T. ) ;
#257 = DIRECTION ( 'NONE',  ( -1.000000000000000000, 0.000000000000000000, 0.000000000000000000 ) ) ;
#258 = PRODUCT_DEFINITION_SHAPE ( 'NONE', 'NONE',  #48 ) ;
#259 = CARTESIAN_POINT ( 'NONE',  ( 0.000000000000000000, 0.000000000000000000, 0.000000000000000000 ) ) ;
#260 = DIRECTION ( 'NONE',  ( 0.000000000000000000, 0.000000000000000000, 1.000000000000000000 ) ) ;
#261 = CARTESIAN_POINT ( 'NONE',  ( 0.1968503937007874127, 0.1968503937007874127, 0.3149606299212598381 ) ) ;
#262 = AXIS2_PLACEMENT_3D ( 'NONE', #484, #529, #154 ) ;
#263 = DIRECTION ( 'NONE',  ( -1.000000000000000000, 0.000000000000000000, -0.000000000000000000 ) ) ;
#264 = DIRECTION ( 'NONE',  ( 1.000000000000000000, 0.000000000000000000, 0.000000000000000000 ) ) ;
#265 = CARTESIAN_POINT ( 'NONE',  ( 0.7874015748031496509, 0.7874015748031496509, 0.000000000000000000 ) ) ;
#266 = ORIENTED_EDGE ( 'NONE', *, *, #97, .F. ) ;
#267 = EDGE_LOOP ( 'NONE', ( #184, #241 ) ) ;
#268 = DIRECTION ( 'NONE',  ( -0.000000000000000000, -0.000000000000000000, 1.000000000000000000 ) ) ;
#269 = AXIS2_PLACEMENT_3D ( 'NONE', #261, #547, #305 ) ;
#270 = ORIENTED_EDGE ( 'NONE', *, *, #385, .T. ) ;
#271 = EDGE_CURVE ( 'NONE', #96, #620, #3, .T. ) ;
#272 = DIRECTION ( 'NONE',  ( 0.000000000000000000, 0.000000000000000000, 1.000000000000000000 ) ) ;
#273 = DIRECTION ( 'NONE',  ( -0.000000000000000000, -0.000000000000000000, 1.000000000000000000 ) ) ;
#274 = VERTEX_POINT ( 'NONE', #255 ) ;
#275 = EDGE_CURVE ( 'NONE', #21, #566, #490, .T. ) ;
#276 = ADVANCED_FACE ( 'NONE', ( #579 ), #586, .T. ) ;
#277 = VECTOR ( 'NONE', #463, 39.37007874015748143 ) ;
#278 = EDGE_LOOP ( 'NONE', ( #380, #104 ) ) ;
#279 = CIRCLE ( 'NONE', #5, 0.1299212598425195930 ) ;
#280 = CIRCLE ( 'NONE', #617, 0.1299212598425195930 ) ;
#281 = FACE_OUTER_BOUND ( 'NONE', #516, .T. ) ;
#282 = ORIENTED_EDGE ( 'NONE', *, *, #132, .T. ) ;
#283 = EDGE_CURVE ( 'NONE', #423, #165, #394, .T. ) ;
#284 = FACE_OUTER_BOUND ( 'NONE', #376, .T. ) ;
#285 = VERTEX_POINT ( 'NONE', #103 ) ;
#286 = ORIENTED_EDGE ( 'NONE', *, *, #551, .T. ) ;
#287 = ORIENTED_EDGE ( 'NONE', *, *, #388, .F. ) ;
#288 = FACE_OUTER_BOUND ( 'NONE', #473, .T. ) ;
#289 = DIRECTION ( 'NONE',  ( 0.000000000000000000, 0.000000000000000000, -1.000000000000000000 ) ) ;
#290 = ORIENTED_EDGE ( 'NONE', *, *, #331, .T. ) ;
#291 = CARTESIAN_POINT ( 'NONE',  ( 3.149606299212598604, 0.7874015748031496509, 0.000000000000000000 ) ) ;
#292 = DIRECTION ( 'NONE',  ( 0.000000000000000000, 0.000000000000000000, 1.000000000000000000 ) ) ;
#293 = EDGE_LOOP ( 'NONE', ( #78, #287 ) ) ;
#294 = DIRECTION ( 'NONE',  ( 1.000000000000000000, 0.000000000000000000, 0.000000000000000000 ) ) ;
#295 = ORIENTED_EDGE ( 'NONE', *, *, #385, .F. ) ;
#296 = VECTOR ( 'NONE', #412, 39.37007874015748143 ) ;
#297 = LINE ( 'NONE', #439, #210 ) ;
#298 = EDGE_CURVE ( 'NONE', #494, #71, #447, .T. ) ;
#299 = CARTESIAN_POINT ( 'NONE',  ( 0.9173228346456695492, 1.574803149606299302, 0.3149606299212598381 ) ) ;
#300 = PLANE ( 'NONE',  #515 ) ;
#301 = LINE ( 'NONE', #42, #557 ) ;
#302 = EDGE_LOOP ( 'NONE', ( #224, #190, #476, #479 ) ) ;
#303 = DIRECTION ( 'NONE',  ( 0.000000000000000000, 0.000000000000000000, 1.000000000000000000 ) ) ;
#304 = DIRECTION ( 'NONE',  ( -1.000000000000000000, 0.000000000000000000, -0.000000000000000000 ) ) ;
#305 = DIRECTION ( 'NONE',  ( -1.000000000000000000, 0.000000000000000000, 0.000000000000000000 ) ) ;
#306 = PLANE ( 'NONE',  #345 ) ;
#307 = AXIS2_PLACEMENT_3D ( 'NONE', #205, #500, #356 ) ;
#308 = CIRCLE ( 'NONE', #197, 0.1299212598425195930 ) ;
#309 = ADVANCED_FACE ( 'NONE', ( #395 ), #444, .T. ) ;
#310 = FACE_OUTER_BOUND ( 'NONE', #237, .T. ) ;
#311 = ORIENTED_EDGE ( 'NONE', *, *, #231, .F. ) ;
#312 = LINE ( 'NONE', #85, #323 ) ;
#313 = CARTESIAN_POINT ( 'NONE',  ( 3.740157480314960647, 2.362204724409448620, 0.3149606299212598381 ) ) ;
#314 = ORIENTED_EDGE ( 'NONE', *, *, #355, .F. ) ;
#315 =( GEOMETRIC_REPRESENTATION_CONTEXT ( 3 ) GLOBAL_UNCERTAINTY_ASSIGNED_CONTEXT ( ( #160 ) ) GLOBAL_UNIT_ASSIGNED_CONTEXT ( ( #34, #370, #613 ) ) REPRESENTATION_CONTEXT ( 'NONE', 'WORKASPACE' ) );
#316 = ORIENTED_EDGE ( 'NONE', *, *, #604, .T. ) ;
#317 = AXIS2_PLACEMENT_3D ( 'NONE', #153, #497, #63 ) ;
#318 = ADVANCED_FACE ( 'NONE', ( #330 ), #594, .F. ) ;
#319 = AXIS2_PLACEMENT_3D ( 'NONE', #505, #549, #27 ) ;
#320 = PLANE ( 'NONE',  #207 ) ;
#321 = ORIENTED_EDGE ( 'NONE', *, *, #402, .T. ) ;
#322 = DIRECTION ( 'NONE',  ( 0.000000000000000000, -1.000000000000000000, 0.000000000000000000 ) ) ;
#323 = VECTOR ( 'NONE', #230, 39.37007874015748143 ) ;
#324 = ORIENTED_EDGE ( 'NONE', *, *, #134, .T. ) ;
#325 = CARTESIAN_POINT ( 'NONE',  ( 0.1968503937007874127, 2.165354330708661568, 0.3149606299212598381 ) ) ;
#326 = ORIENTED_EDGE ( 'NONE', *, *, #252, .T. ) ;
#327 = ORIENTED_EDGE ( 'NONE', *, *, #511, .F. ) ;
#328 = ORIENTED_EDGE ( 'NONE', *, *, #532, .F. ) ;
#329 = DIRECTION ( 'NONE',  ( 1.000000000000000000, 0.000000000000000000, 0.000000000000000000 ) ) ;
#330 = FACE_OUTER_BOUND ( 'NONE', #623, .T. ) ;
#331 = EDGE_CURVE ( 'NONE', #59, #43, #338, .T. ) ;
#332 = VERTEX_POINT ( 'NONE', #95 ) ;
#333 = DIRECTION ( 'NONE',  ( -0.000000000000000000, -0.000000000000000000, 1.000000000000000000 ) ) ;
#334 = DIRECTION ( 'NONE',  ( 1.000000000000000000, 0.000000000000000000, 0.000000000000000000 ) ) ;
#335 = VERTEX_POINT ( 'NONE', #343 ) ;
#336 = AXIS2_PLACEMENT_3D ( 'NONE', #249, #51, #443 ) ;
#337 = CYLINDRICAL_SURFACE ( 'NONE', #262, 0.1299212598425195930 ) ;
#338 = LINE ( 'NONE', #582, #365 ) ;
#339 = VERTEX_POINT ( 'NONE', #299 ) ;
#340 = AXIS2_PLACEMENT_3D ( 'NONE', #496, #62, #116 ) ;
#341 = EDGE_CURVE ( 'NONE', #285, #339, #434, .T. ) ;
#342 = DIRECTION ( 'NONE',  ( -0.000000000000000000, -0.000000000000000000, 1.000000000000000000 ) ) ;
#343 = CARTESIAN_POINT ( 'NONE',  ( 0.000000000000000000, 2.165354330708661568, 0.3149606299212598381 ) ) ;
#344 = ORIENTED_EDGE ( 'NONE', *, *, #454, .F. ) ;
#345 = AXIS2_PLACEMENT_3D ( 'NONE', #603, #548, #263 ) ;
#346 =( CONVERSION_BASED_UNIT ( 'INCH', #201 ) LENGTH_UNIT ( ) NAMED_UNIT ( #521 ) );
#347 = LINE ( 'NONE', #389, #410 ) ;
#348 = CARTESIAN_POINT ( 'NONE',  ( 3.149606299212598604, 1.574803149606299302, 0.000000000000000000 ) ) ;
#349 = FACE_BOUND ( 'NONE', #112, .T. ) ;
#350 = FACE_OUTER_BOUND ( 'NONE', #248, .T. ) ;
#351 = ORIENTED_EDGE ( 'NONE', *, *, #137, .T. ) ;
#352 = LINE ( 'NONE', #259, #277 ) ;
#353 = LINE ( 'NONE', #469, #459 ) ;
#354 = EDGE_LOOP ( 'NONE', ( #88, #371, #481, #460 ) ) ;
#355 = EDGE_CURVE ( 'NONE', #228, #587, #562, .T. ) ;
#356 = DIRECTION ( 'NONE',  ( 1.000000000000000000, 0.000000000000000000, 0.000000000000000000 ) ) ;
#357 = CARTESIAN_POINT ( 'NONE',  ( 0.6574803149606300856, 1.574803149606299302, 0.000000000000000000 ) ) ;
#358 = DIRECTION ( 'NONE',  ( 1.000000000000000000, 0.000000000000000000, 0.000000000000000000 ) ) ;
#359 = LINE ( 'NONE', #552, #155 ) ;
#360 = DIRECTION ( 'NONE',  ( -0.000000000000000000, -0.000000000000000000, 1.000000000000000000 ) ) ;
#361 = ORIENTED_EDGE ( 'NONE', *, *, #226, .T. ) ;
#362 = DIRECTION ( 'NONE',  ( 0.000000000000000000, -0.000000000000000000, -1.000000000000000000 ) ) ;
#363 = CARTESIAN_POINT ( 'NONE',  ( 0.000000000000000000, 0.1968503937007874127, 0.3149606299212598381 ) ) ;
#364 = EDGE_CURVE ( 'NONE', #584, #176, #353, .T. ) ;
#365 = VECTOR ( 'NONE', #591, 39.37007874015748143 ) ;
#366 = APPLICATION_PROTOCOL_DEFINITION ( 'draft international standard', 'automotive_design', 1998, #54 ) ;
#367 = LINE ( 'NONE', #560, #14 ) ;
#368 = DIRECTION ( 'NONE',  ( 0.000000000000000000, 1.000000000000000000, 0.000000000000000000 ) ) ;
#369 = CARTESIAN_POINT ( 'NONE',  ( 0.000000000000000000, 0.000000000000000000, 0.3149606299212598381 ) ) ;
#370 =( NAMED_UNIT ( * ) PLANE_ANGLE_UNIT ( ) SI_UNIT ( $, .RADIAN. ) );
#371 = ORIENTED_EDGE ( 'NONE', *, *, #171, .T. ) ;
#372 = ADVANCED_FACE ( 'NONE', ( #288 ), #106, .F. ) ;
#373 = FACE_OUTER_BOUND ( 'NONE', #302, .T. ) ;
#374 = ORIENTED_EDGE ( 'NONE', *, *, #355, .T. ) ;
#375 = CIRCLE ( 'NONE', #217, 0.1968503937007874127 ) ;
#376 = EDGE_LOOP ( 'NONE', ( #286, #290, #542, #215 ) ) ;
#377 = EDGE_CURVE ( 'NONE', #274, #378, #128, .T. ) ;
#378 = VERTEX_POINT ( 'NONE', #98 ) ;
#379 = DIRECTION ( 'NONE',  ( 0.000000000000000000, 0.000000000000000000, 1.000000000000000000 ) ) ;
#380 = ORIENTED_EDGE ( 'NONE', *, *, #76, .T. ) ;
#381 = AXIS2_PLACEMENT_3D ( 'NONE', #536, #102, #593 ) ;
#382 = DIRECTION ( 'NONE',  ( -0.000000000000000000, -0.000000000000000000, 1.000000000000000000 ) ) ;
#383 = CARTESIAN_POINT ( 'NONE',  ( 3.149606299212598604, 1.574803149606299302, 0.000000000000000000 ) ) ;
#384 = EDGE_LOOP ( 'NONE', ( #351, #487 ) ) ;
#385 = EDGE_CURVE ( 'NONE', #176, #21, #297, .T. ) ;
#386 = CARTESIAN_POINT ( 'NONE',  ( 3.149606299212598604, 0.7874015748031496509, 0.3149606299212598381 ) ) ;
#387 = ORIENTED_EDGE ( 'NONE', *, *, #10, .F. ) ;
#388 = EDGE_CURVE ( 'NONE', #620, #69, #82, .T. ) ;
#389 = CARTESIAN_POINT ( 'NONE',  ( 3.937007874015748143, 2.165354330708661568, 0.3149606299212598381 ) ) ;
#390 = CARTESIAN_POINT ( 'NONE',  ( 0.1968503937007874127, 2.362204724409448620, 0.3149606299212598381 ) ) ;
#391 = EDGE_LOOP ( 'NONE', ( #502, #38, #499, #568 ) ) ;
#392 = CIRCLE ( 'NONE', #590, 0.1299212598425195930 ) ;
#393 = CARTESIAN_POINT ( 'NONE',  ( 0.7874015748031496509, 0.7874015748031496509, 0.3149606299212598381 ) ) ;
#394 = CIRCLE ( 'NONE', #57, 0.1299212598425197318 ) ;
#395 = FACE_OUTER_BOUND ( 'NONE', #196, .T. ) ;
#396 = DIRECTION ( 'NONE',  ( 1.000000000000000000, 0.000000000000000000, 0.000000000000000000 ) ) ;
#397 = AXIS2_PLACEMENT_3D ( 'NONE', #179, #272, #559 ) ;
#398 = DIRECTION ( 'NONE',  ( 1.000000000000000000, 0.000000000000000000, 0.000000000000000000 ) ) ;
#399 = ORIENTED_EDGE ( 'NONE', *, *, #242, .T. ) ;
#400 = PRESENTATION_STYLE_ASSIGNMENT (( #546 ) ) ;
#401 = FACE_OUTER_BOUND ( 'NONE', #100, .T. ) ;
#402 = EDGE_CURVE ( 'NONE', #608, #378, #91, .T. ) ;
#403 = FACE_BOUND ( 'NONE', #278, .T. ) ;
#404 = CARTESIAN_POINT ( 'NONE',  ( 0.000000000000000000, 0.1968503937007874127, 0.3149606299212598381 ) ) ;
#405 = EDGE_LOOP ( 'NONE', ( #344, #558, #627, #327 ) ) ;
#406 = ORIENTED_EDGE ( 'NONE', *, *, #604, .F. ) ;
#407 = PRODUCT ( 'demo_01_bracket', 'demo_01_bracket', '', ( #477 ) ) ;
#408 = VECTOR ( 'NONE', #368, 39.37007874015748143 ) ;
#409 = CARTESIAN_POINT ( 'NONE',  ( 0.1968503937007874127, 0.000000000000000000, 0.3149606299212598381 ) ) ;
#410 = VECTOR ( 'NONE', #540, 39.37007874015748143 ) ;
#411 = ADVANCED_FACE ( 'NONE', ( #436 ), #337, .F. ) ;
#412 = DIRECTION ( 'NONE',  ( -0.000000000000000000, -0.000000000000000000, 1.000000000000000000 ) ) ;
#413 = LINE ( 'NONE', #363, #75 ) ;
#414 = APPLICATION_CONTEXT ( 'automotive_design' ) ;
#415 = AXIS2_PLACEMENT_3D ( 'NONE', #348, #203, #482 ) ;
#416 = EDGE_CURVE ( 'NONE', #523, #21, #461, .T. ) ;
#417 = CARTESIAN_POINT ( 'NONE',  ( 3.740157480314960647, 0.1968503937007874127, 0.000000000000000000 ) ) ;
#418 = AXIS2_PLACEMENT_3D ( 'NONE', #189, #379, #264 ) ;
#419 = ORIENTED_EDGE ( 'NONE', *, *, #462, .F. ) ;
#420 = DIRECTION ( 'NONE',  ( -1.000000000000000000, 0.000000000000000000, 0.000000000000000000 ) ) ;
#421 = ORIENTED_EDGE ( 'NONE', *, *, #283, .F. ) ;
#422 = EDGE_CURVE ( 'NONE', #335, #519, #448, .T. ) ;
#423 = VERTEX_POINT ( 'NONE', #11 ) ;
#424 = CIRCLE ( 'NONE', #307, 0.1299212598425195930 ) ;
#425 = CARTESIAN_POINT ( 'NONE',  ( 3.937007874015748143, 0.000000000000000000, 0.000000000000000000 ) ) ;
#426 = ORIENTED_EDGE ( 'NONE', *, *, #231, .T. ) ;
#427 = EDGE_CURVE ( 'NONE', #124, #274, #2, .T. ) ;
#428 = ORIENTED_EDGE ( 'NONE', *, *, #454, .T. ) ;
#429 = DIRECTION ( 'NONE',  ( 1.000000000000000000, 0.000000000000000000, 0.000000000000000000 ) ) ;
#430 = ORIENTED_EDGE ( 'NONE', *, *, #388, .T. ) ;
#431 = VERTEX_POINT ( 'NONE', #191 ) ;
#432 = ADVANCED_FACE ( 'NONE', ( #146 ), #489, .F. ) ;
#433 = STYLED_ITEM ( 'NONE', ( #400 ), #84 ) ;
#434 = CIRCLE ( 'NONE', #491, 0.1299212598425197318 ) ;
#435 = VERTEX_POINT ( 'NONE', #198 ) ;
#436 = FACE_OUTER_BOUND ( 'NONE', #354, .T. ) ;
#437 = DIRECTION ( 'NONE',  ( -1.000000000000000000, 0.000000000000000000, 0.000000000000000000 ) ) ;
#438 = ORIENTED_EDGE ( 'NONE', *, *, #171, .F. ) ;
#439 = CARTESIAN_POINT ( 'NONE',  ( 0.000000000000000000, 2.362204724409448620, 0.000000000000000000 ) ) ;
#440 = DIRECTION ( 'NONE',  ( -1.000000000000000000, 0.000000000000000000, 0.000000000000000000 ) ) ;
#441 = CIRCLE ( 'NONE', #123, 0.1299212598425197318 ) ;
#442 = ORIENTED_EDGE ( 'NONE', *, *, #134, .F. ) ;
#443 = DIRECTION ( 'NONE',  ( -1.000000000000000000, 0.000000000000000000, 0.000000000000000000 ) ) ;
#444 = CYLINDRICAL_SURFACE ( 'NONE', #601, 0.1968503937007874127 ) ;
#445 = CARTESIAN_POINT ( 'NONE',  ( 0.1968503937007874127, 2.362204724409448620, 0.000000000000000000 ) ) ;
#446 = VECTOR ( 'NONE', #161, 39.37007874015748143 ) ;
#447 = CIRCLE ( 'NONE', #415, 0.1299212598425195930 ) ;
#448 = LINE ( 'NONE', #533, #55 ) ;
#449 = CARTESIAN_POINT ( 'NONE',  ( 0.1968503937007874127, 2.165354330708661568, 0.3149606299212598381 ) ) ;
#450 = CARTESIAN_POINT ( 'NONE',  ( 0.7874015748031496509, 0.7874015748031496509, 0.000000000000000000 ) ) ;
#451 = LINE ( 'NONE', #611, #525 ) ;
#452 = DIRECTION ( 'NONE',  ( 0.000000000000000000, 0.000000000000000000, 1.000000000000000000 ) ) ;
#453 = FACE_BOUND ( 'NONE', #87, .T. ) ;
#454 = EDGE_CURVE ( 'NONE', #43, #162, #610, .T. ) ;
#455 = PRODUCT_DEFINITION_FORMATION_WITH_SPECIFIED_SOURCE ( 'ANY', '', #407, .NOT_KNOWN. ) ;
#456 = FILL_AREA_STYLE_COLOUR ( '', #575 ) ;
#457 = CARTESIAN_POINT ( 'NONE',  ( 3.937007874015748143, 0.1968503937007874127, 0.3149606299212598381 ) ) ;
#458 = AXIS2_PLACEMENT_3D ( 'NONE', #450, #260, #396 ) ;
#459 = VECTOR ( 'NONE', #243, 39.37007874015748143 ) ;
#460 = ORIENTED_EDGE ( 'NONE', *, *, #89, .F. ) ;
#461 = CIRCLE ( 'NONE', #336, 0.1968503937007874127 ) ;
#462 = EDGE_CURVE ( 'NONE', #178, #431, #347, .T. ) ;
#463 = DIRECTION ( 'NONE',  ( -0.000000000000000000, -1.000000000000000000, -0.000000000000000000 ) ) ;
#464 = EDGE_CURVE ( 'NONE', #96, #93, #280, .T. ) ;
#465 = CARTESIAN_POINT ( 'NONE',  ( 3.279527559055118058, 0.7874015748031496509, 0.3149606299212598381 ) ) ;
#466 = DIRECTION ( 'NONE',  ( 1.000000000000000000, 0.000000000000000000, 0.000000000000000000 ) ) ;
#467 =( NAMED_UNIT ( * ) PLANE_ANGLE_UNIT ( ) SI_UNIT ( $, .RADIAN. ) );
#468 = LINE ( 'NONE', #602, #446 ) ;
#469 = CARTESIAN_POINT ( 'NONE',  ( 3.740157480314960647, 2.362204724409448620, 0.3149606299212598381 ) ) ;
#470 = CARTESIAN_POINT ( 'NONE',  ( 3.740157480314960647, 2.362204724409448620, 0.000000000000000000 ) ) ;
#471 = VERTEX_POINT ( 'NONE', #49 ) ;
#472 = CARTESIAN_POINT ( 'NONE',  ( 3.937007874015748143, 2.165354330708661568, 0.000000000000000000 ) ) ;
#473 = EDGE_LOOP ( 'NONE', ( #492, #592, #561, #316 ) ) ;
#474 = DIMENSIONAL_EXPONENTS ( 1.000000000000000000, 0.000000000000000000, 0.000000000000000000, 0.000000000000000000, 0.000000000000000000, 0.000000000000000000, 0.000000000000000000 ) ;
#475 = DIRECTION ( 'NONE',  ( 1.000000000000000000, 0.000000000000000000, 0.000000000000000000 ) ) ;
#476 = ORIENTED_EDGE ( 'NONE', *, *, #97, .T. ) ;
#477 = PRODUCT_CONTEXT ( 'NONE', #414, 'mechanical' ) ;
#478 = EDGE_CURVE ( 'NONE', #431, #584, #35, .T. ) ;
#479 = ORIENTED_EDGE ( 'NONE', *, *, #495, .T. ) ;
#480 = AXIS2_PLACEMENT_3D ( 'NONE', #621, #322, #362 ) ;
#481 = ORIENTED_EDGE ( 'NONE', *, *, #10, .T. ) ;
#482 = DIRECTION ( 'NONE',  ( 1.000000000000000000, 0.000000000000000000, 0.000000000000000000 ) ) ;
#483 = EDGE_LOOP ( 'NONE', ( #131, #419, #110, #574 ) ) ;
#484 = CARTESIAN_POINT ( 'NONE',  ( 3.149606299212598604, 1.574803149606299302, 0.000000000000000000 ) ) ;
#485 = EDGE_CURVE ( 'NONE', #335, #523, #301, .T. ) ;
#486 = DIRECTION ( 'NONE',  ( 0.000000000000000000, 0.000000000000000000, -1.000000000000000000 ) ) ;
#487 = ORIENTED_EDGE ( 'NONE', *, *, #298, .T. ) ;
#488 = AXIS2_PLACEMENT_3D ( 'NONE', #46, #240, #486 ) ;
#489 = CYLINDRICAL_SURFACE ( 'NONE', #136, 0.1299212598425195930 ) ;
#490 = LINE ( 'NONE', #390, #567 ) ;
#491 = AXIS2_PLACEMENT_3D ( 'NONE', #147, #292, #334 ) ;
#492 = ORIENTED_EDGE ( 'NONE', *, *, #422, .F. ) ;
#493 = CARTESIAN_POINT ( 'NONE',  ( 0.000000000000000000, 0.1968503937007874127, 0.000000000000000000 ) ) ;
#494 = VERTEX_POINT ( 'NONE', #629 ) ;
#495 = EDGE_CURVE ( 'NONE', #339, #285, #569, .T. ) ;
#496 = CARTESIAN_POINT ( 'NONE',  ( 3.937007874015748143, 0.000000000000000000, 0.3149606299212598381 ) ) ;
#497 = DIRECTION ( 'NONE',  ( -0.000000000000000000, -0.000000000000000000, 1.000000000000000000 ) ) ;
#498 = CARTESIAN_POINT ( 'NONE',  ( 0.7874015748031496509, 0.7874015748031496509, 0.3149606299212598381 ) ) ;
#499 = ORIENTED_EDGE ( 'NONE', *, *, #427, .T. ) ;
#500 = DIRECTION ( 'NONE',  ( 0.000000000000000000, 0.000000000000000000, 1.000000000000000000 ) ) ;
#501 = CARTESIAN_POINT ( 'NONE',  ( 3.149606299212598604, 0.7874015748031496509, 0.3149606299212598381 ) ) ;
#502 = ORIENTED_EDGE ( 'NONE', *, *, #402, .F. ) ;
#503 =( NAMED_UNIT ( * ) SI_UNIT ( $, .STERADIAN. ) SOLID_ANGLE_UNIT ( ) );
#504 = AXIS2_PLACEMENT_3D ( 'NONE', #417, #618, #175 ) ;
#505 = CARTESIAN_POINT ( 'NONE',  ( 3.740157480314960647, 0.1968503937007874127, 0.3149606299212598381 ) ) ;
#506 = VECTOR ( 'NONE', #92, 39.37007874015748143 ) ;
#507 = ADVANCED_BREP_SHAPE_REPRESENTATION ( 'demo_01_bracket', ( #84, #397 ), #315 ) ;
#508 = CLOSED_SHELL ( 'NONE', ( #177, #528, #40, #411, #318, #192, #372, #139, #520, #167, #30, #65, #182, #432, #309, #276, #588, #541 ) ) ;
#509 = CARTESIAN_POINT ( 'NONE',  ( 3.279527559055118058, 1.574803149606299302, 0.3149606299212598381 ) ) ;
#510 = CARTESIAN_POINT ( 'NONE',  ( 0.7874015748031497619, 1.574803149606299302, 0.000000000000000000 ) ) ;
#511 = EDGE_CURVE ( 'NONE', #162, #332, #70, .T. ) ;
#512 = AXIS2_PLACEMENT_3D ( 'NONE', #383, #199, #526 ) ;
#513 = EDGE_LOOP ( 'NONE', ( #6, #324, #600, #326, #41, #428, #426, #151 ) ) ;
#514 = CARTESIAN_POINT ( 'NONE',  ( 3.149606299212598604, 0.7874015748031496509, 0.000000000000000000 ) ) ;
#515 = AXIS2_PLACEMENT_3D ( 'NONE', #107, #117, #304 ) ;
#516 = EDGE_LOOP ( 'NONE', ( #535, #1, #430, #4 ) ) ;
#517 = PRODUCT_DEFINITION_CONTEXT ( 'detailed design', #54, 'design' ) ;
#518 = CARTESIAN_POINT ( 'NONE',  ( 3.019685039370079149, 1.574803149606299302, 0.000000000000000000 ) ) ;
#519 = VERTEX_POINT ( 'NONE', #404 ) ;
#520 = ADVANCED_FACE ( 'NONE', ( #350 ), #556, .F. ) ;
#521 = DIMENSIONAL_EXPONENTS ( 1.000000000000000000, 0.000000000000000000, 0.000000000000000000, 0.000000000000000000, 0.000000000000000000, 0.000000000000000000, 0.000000000000000000 ) ;
#522 = ORIENTED_EDGE ( 'NONE', *, *, #275, .T. ) ;
#523 = VERTEX_POINT ( 'NONE', #206 ) ;
#524 = DIRECTION ( 'NONE',  ( -1.000000000000000000, 0.000000000000000000, 0.000000000000000000 ) ) ;
#525 = VECTOR ( 'NONE', #23, 39.37007874015748143 ) ;
#526 = DIRECTION ( 'NONE',  ( 1.000000000000000000, 0.000000000000000000, 0.000000000000000000 ) ) ;
#527 = ORIENTED_EDGE ( 'NONE', *, *, #619, .T. ) ;
#528 = ADVANCED_FACE ( 'NONE', ( #310 ), #164, .F. ) ;
#529 = DIRECTION ( 'NONE',  ( -0.000000000000000000, -0.000000000000000000, 1.000000000000000000 ) ) ;
#530 = CARTESIAN_POINT ( 'NONE',  ( 0.1968503937007874127, 0.1968503937007874127, 0.000000000000000000 ) ) ;
#531 = ORIENTED_EDGE ( 'NONE', *, *, #462, .T. ) ;
#532 = EDGE_CURVE ( 'NONE', #523, #587, #352, .T. ) ;
#533 = CARTESIAN_POINT ( 'NONE',  ( 0.000000000000000000, 0.000000000000000000, 0.3149606299212598381 ) ) ;
#534 = CARTESIAN_POINT ( 'NONE',  ( 3.937007874015748143, 0.000000000000000000, 0.3149606299212598381 ) ) ;
#535 = ORIENTED_EDGE ( 'NONE', *, *, #464, .F. ) ;
#536 = CARTESIAN_POINT ( 'NONE',  ( 3.740157480314960647, 2.165354330708661568, 0.3149606299212598381 ) ) ;
#537 = EDGE_CURVE ( 'NONE', #378, #274, #79, .T. ) ;
#538 = CARTESIAN_POINT ( 'NONE',  ( 3.740157480314960647, 2.165354330708661568, 0.3149606299212598381 ) ) ;
#539 = ORIENTED_EDGE ( 'NONE', *, *, #275, .F. ) ;
#540 = DIRECTION ( 'NONE',  ( -0.000000000000000000, -0.000000000000000000, 1.000000000000000000 ) ) ;
#541 = ADVANCED_FACE ( 'NONE', ( #401 ), #119, .T. ) ;
#542 = ORIENTED_EDGE ( 'NONE', *, *, #120, .F. ) ;
#543 = FACE_OUTER_BOUND ( 'NONE', #405, .T. ) ;
#544 = FACE_BOUND ( 'NONE', #47, .T. ) ;
#545 = VECTOR ( 'NONE', #173, 39.37007874015748143 ) ;
#546 = SURFACE_STYLE_USAGE ( .BOTH. , #605 ) ;
#547 = DIRECTION ( 'NONE',  ( 0.000000000000000000, 0.000000000000000000, -1.000000000000000000 ) ) ;
#548 = DIRECTION ( 'NONE',  ( 0.000000000000000000, 0.000000000000000000, -1.000000000000000000 ) ) ;
#549 = DIRECTION ( 'NONE',  ( 0.000000000000000000, 0.000000000000000000, -1.000000000000000000 ) ) ;
#550 = ORIENTED_EDGE ( 'NONE', *, *, #609, .F. ) ;
#551 = EDGE_CURVE ( 'NONE', #228, #59, #468, .T. ) ;
#552 = CARTESIAN_POINT ( 'NONE',  ( 0.9173228346456695492, 1.574803149606299302, 0.000000000000000000 ) ) ;
#553 = DIRECTION ( 'NONE',  ( -0.000000000000000000, -0.000000000000000000, 1.000000000000000000 ) ) ;
#554 = ORIENTED_EDGE ( 'NONE', *, *, #186, .F. ) ;
#555 = CYLINDRICAL_SURFACE ( 'NONE', #64, 0.1299212598425195930 ) ;
#556 = PLANE ( 'NONE',  #340 ) ;
#557 = VECTOR ( 'NONE', #235, 39.37007874015748143 ) ;
#558 = ORIENTED_EDGE ( 'NONE', *, *, #331, .F. ) ;
#559 = DIRECTION ( 'NONE',  ( 1.000000000000000000, 0.000000000000000000, 0.000000000000000000 ) ) ;
#560 = CARTESIAN_POINT ( 'NONE',  ( 3.279527559055118058, 0.7874015748031496509, 0.000000000000000000 ) ) ;
#561 = ORIENTED_EDGE ( 'NONE', *, *, #532, .T. ) ;
#562 = CIRCLE ( 'NONE', #113, 0.1968503937007874127 ) ;
#563 = CARTESIAN_POINT ( 'NONE',  ( 0.9173228346456693272, 0.7874015748031496509, 0.000000000000000000 ) ) ;
#564 = ORIENTED_EDGE ( 'NONE', *, *, #570, .T. ) ;
#565 = DIRECTION ( 'NONE',  ( 1.000000000000000000, 0.000000000000000000, 0.000000000000000000 ) ) ;
#566 = VERTEX_POINT ( 'NONE', #599 ) ;
#567 = VECTOR ( 'NONE', #193, 39.37007874015748143 ) ;
#568 = ORIENTED_EDGE ( 'NONE', *, *, #377, .T. ) ;
#569 = CIRCLE ( 'NONE', #418, 0.1299212598425197318 ) ;
#570 = EDGE_CURVE ( 'NONE', #69, #620, #308, .T. ) ;
#571 = AXIS2_PLACEMENT_3D ( 'NONE', #498, #211, #615 ) ;
#572 = DIRECTION ( 'NONE',  ( -0.000000000000000000, -0.000000000000000000, 1.000000000000000000 ) ) ;
#573 = AXIS2_PLACEMENT_3D ( 'NONE', #325, #80, #420 ) ;
#574 = ORIENTED_EDGE ( 'NONE', *, *, #364, .F. ) ;
#575 = COLOUR_RGB ( '',0.7921568627450980005, 0.8196078431372548767, 0.9333333333333333481 ) ;
#576 = AXIS2_PLACEMENT_3D ( 'NONE', #538, #150, #16 ) ;
#577 = ORIENTED_EDGE ( 'NONE', *, *, #283, .T. ) ;
#578 = DIRECTION ( 'NONE',  ( -0.000000000000000000, -1.000000000000000000, -0.000000000000000000 ) ) ;
#579 = FACE_OUTER_BOUND ( 'NONE', #483, .T. ) ;
#580 = ORIENTED_EDGE ( 'NONE', *, *, #137, .F. ) ;
#581 = DIRECTION ( 'NONE',  ( -0.000000000000000000, -0.000000000000000000, 1.000000000000000000 ) ) ;
#582 = CARTESIAN_POINT ( 'NONE',  ( 3.740157480314960647, 0.000000000000000000, 0.3149606299212598381 ) ) ;
#583 = EDGE_CURVE ( 'NONE', #423, #285, #612, .T. ) ;
#584 = VERTEX_POINT ( 'NONE', #313 ) ;
#585 = CARTESIAN_POINT ( 'NONE',  ( 3.149606299212598604, 0.7874015748031496509, 0.000000000000000000 ) ) ;
#586 = CYLINDRICAL_SURFACE ( 'NONE', #576, 0.1968503937007875793 ) ;
#587 = VERTEX_POINT ( 'NONE', #493 ) ;
#588 = ADVANCED_FACE ( 'NONE', ( #543 ), #20, .T. ) ;
#589 = DIRECTION ( 'NONE',  ( 0.000000000000000000, 0.000000000000000000, 1.000000000000000000 ) ) ;
#590 = AXIS2_PLACEMENT_3D ( 'NONE', #39, #172, #429 ) ;
#591 = DIRECTION ( 'NONE',  ( -0.000000000000000000, -0.000000000000000000, 1.000000000000000000 ) ) ;
#592 = ORIENTED_EDGE ( 'NONE', *, *, #485, .T. ) ;
#593 = DIRECTION ( 'NONE',  ( -1.000000000000000000, 0.000000000000000000, 0.000000000000000000 ) ) ;
#594 = CYLINDRICAL_SURFACE ( 'NONE', #512, 0.1299212598425195930 ) ;
#595 = CARTESIAN_POINT ( 'NONE',  ( 3.740157480314960647, 0.000000000000000000, 0.000000000000000000 ) ) ;
#596 = AXIS2_PLACEMENT_3D ( 'NONE', #221, #33, #129 ) ;
#597 = MECHANICAL_DESIGN_GEOMETRIC_PRESENTATION_REPRESENTATION (  '', ( #433 ), #246 ) ;
#598 = FILL_AREA_STYLE ('',( #456 ) ) ;
#599 = CARTESIAN_POINT ( 'NONE',  ( 0.1968503937007874127, 2.362204724409448620, 0.3149606299212598381 ) ) ;
#600 = ORIENTED_EDGE ( 'NONE', *, *, #422, .T. ) ;
#601 = AXIS2_PLACEMENT_3D ( 'NONE', #449, #289, #440 ) ;
#602 = CARTESIAN_POINT ( 'NONE',  ( 0.000000000000000000, 0.000000000000000000, 0.000000000000000000 ) ) ;
#603 = CARTESIAN_POINT ( 'NONE',  ( 0.000000000000000000, 0.000000000000000000, 0.000000000000000000 ) ) ;
#604 = EDGE_CURVE ( 'NONE', #587, #519, #413, .T. ) ;
#605 = SURFACE_SIDE_STYLE ('',( #114 ) ) ;
#606 = DIRECTION ( 'NONE',  ( -0.000000000000000000, -0.000000000000000000, 1.000000000000000000 ) ) ;
#607 = ORIENTED_EDGE ( 'NONE', *, *, #216, .T. ) ;
#608 = VERTEX_POINT ( 'NONE', #111 ) ;
#609 = EDGE_CURVE ( 'NONE', #584, #566, #213, .T. ) ;
#610 = CIRCLE ( 'NONE', #105, 0.1968503937007875793 ) ;
#611 = CARTESIAN_POINT ( 'NONE',  ( 3.279527559055118058, 1.574803149606299302, 0.000000000000000000 ) ) ;
#612 = LINE ( 'NONE', #357, #28 ) ;
#613 =( NAMED_UNIT ( * ) SI_UNIT ( $, .STERADIAN. ) SOLID_ANGLE_UNIT ( ) );
#614 = CYLINDRICAL_SURFACE ( 'NONE', #174, 0.1299212598425197318 ) ;
#615 = DIRECTION ( 'NONE',  ( 1.000000000000000000, 0.000000000000000000, 0.000000000000000000 ) ) ;
#616 = ORIENTED_EDGE ( 'NONE', *, *, #485, .F. ) ;
#617 = AXIS2_PLACEMENT_3D ( 'NONE', #291, #589, #152 ) ;
#618 = DIRECTION ( 'NONE',  ( 0.000000000000000000, 0.000000000000000000, -1.000000000000000000 ) ) ;
#619 = EDGE_CURVE ( 'NONE', #165, #423, #239, .T. ) ;
#620 = VERTEX_POINT ( 'NONE', #24 ) ;
#621 = CARTESIAN_POINT ( 'NONE',  ( 0.000000000000000000, 2.362204724409448620, 0.3149606299212598381 ) ) ;
#622 = PRODUCT_RELATED_PRODUCT_CATEGORY ( 'part', '', ( #407 ) ) ;
#623 = EDGE_LOOP ( 'NONE', ( #438, #580, #148, #212 ) ) ;
#624 = DIRECTION ( 'NONE',  ( 0.000000000000000000, -0.000000000000000000, 1.000000000000000000 ) ) ;
#625 = EDGE_CURVE ( 'NONE', #471, #228, #222, .T. ) ;
#626 = ORIENTED_EDGE ( 'NONE', *, *, #416, .T. ) ;
#627 = ORIENTED_EDGE ( 'NONE', *, *, #195, .F. ) ;
#628 = ORIENTED_EDGE ( 'NONE', *, *, #625, .F. ) ;
#629 = CARTESIAN_POINT ( 'NONE',  ( 3.019685039370079149, 1.574803149606299302, 0.000000000000000000 ) ) ;
ENDSEC;
END-ISO-10303-21;
